{
  "accessors": [
    {
      "bufferView": 2,
      "componentType": 5126,
      "count": 1385,
      "max": [
        0.46317264437675476,
        0.9791672825813293,
        0.0016398390289396048
      ],
      "min": [
        -0.46317267417907715,
        -0.979167103767395,
        0.0
      ],
      "type": "VEC3"
    },
    {
      "bufferView": 2,
      "byteOffset": 16620,
      "componentType": 5126,
      "count": 1385,
      "max": [
        0.11353079229593277,
        0.05429386720061302,
        -0.9922983050346375
      ],
      "min": [
        -0.11353079229593277,
        -0.05429386720061302,
        -1.0
      ],
      "type": "VEC3"
    },
    {
      "bufferView": 1,
      "componentType": 5126,
      "count": 1385,
      "max": [
        1.0000001192092896,
        1.0000001192092896
      ],
      "min": [
        0.0,
        0.0
      ],
      "type": "VEC2"
    },
    {
      "bufferView": 0,
      "componentType": 5125,
      "count": 7671,
      "type": "SCALAR"
    },
    {
      "bufferView": 2,
      "byteOffset": 33240,
      "componentType": 5126,
      "count": 2554,
      "max": [
        0.470563679933548,
        0.9947918653488159,
        0.006559357047080994
      ],
      "min": [
        -0.470563679933548,
        -0.9947918653488159,
        0.00109321647323668
      ],
      "type": "VEC3"
    },
    {
      "bufferView": 2,
      "byteOffset": 63888,
      "componentType": 5126,
      "count": 2554,
      "max": [
        1.0,
        1.0,
        1.0
      ],
      "min": [
        -1.0,
        -1.0,
        -0.9985433220863342
      ],
      "type": "VEC3"
    },
    {
      "bufferView": 1,
      "byteOffset": 11080,
      "componentType": 5126,
      "count": 2554,
      "max": [
        1.0171343088150024,
        1.0165165662765503
      ],
      "min": [
        -0.029987715184688568,
        -0.030605671927332878
      ],
      "type": "VEC2"
    },
    {
      "bufferView": 0,
      "byteOffset": 30684,
      "componentType": 5125,
      "count": 14445,
      "type": "SCALAR"
    },
    {
      "bufferView": 2,
      "byteOffset": 94536,
      "componentType": 5126,
      "count": 1385,
      "max": [
        0.46317264437675476,
        0.9791672825813293,
        0.0016398390289396048
      ],
      "min": [
        -0.46317267417907715,
        -0.979167103767395,
        0.0
      ],
      "type": "VEC3"
    },
    {
      "bufferView": 2,
      "byteOffset": 111156,
      "componentType": 5126,
      "count": 1385,
      "max": [
        0.11353079229593277,
        0.05429386720061302,
        -0.9922983050346375
      ],
      "min": [
        -0.11353079229593277,
        -0.05429386720061302,
        -1.0
      ],
      "type": "VEC3"
    },
    {
      "bufferView": 1,
      "byteOffset": 31512,
      "componentType": 5126,
      "count": 1385,
      "max": [
        1.0000001192092896,
        1.0000001192092896
      ],
      "min": [
        0.0,
        0.0
      ],
      "type": "VEC2"
    },
    {
      "bufferView": 0,
      "byteOffset": 88464,
      "componentType": 5125,
      "count": 7671,
      "type": "SCALAR"
    },
    {
      "bufferView": 2,
      "byteOffset": 127776,
      "componentType": 5126,
      "count": 2555,
      "max": [
        0.470563679933548,
        0.9947918653488159,
        0.006559357047080994
      ],
      "min": [
        -0.470563679933548,
        -0.9947918653488159,
        0.00109321647323668
      ],
      "type": "VEC3"
    },
    {
      "bufferView": 2,
      "byteOffset": 158436,
      "componentType": 5126,
      "count": 2555,
      "max": [
        1.0,
        1.0,
        1.0
      ],
      "min": [
        -1.0,
        -1.0,
        -0.9985433220863342
      ],
      "type": "VEC3"
    },
    {
      "bufferView": 1,
      "byteOffset": 42592,
      "componentType": 5126,
      "count": 2555,
      "max": [
        1.0171343088150024,
        1.0165165662765503
      ],
      "min": [
        -0.029987715184688568,
        -0.030605671927332878
      ],
      "type": "VEC2"
    },
    {
      "bufferView": 0,
      "byteOffset": 119148,
      "componentType": 5125,
      "count": 14445,
      "type": "SCALAR"
    },
    {
      "bufferView": 2,
      "byteOffset": 189096,
      "componentType": 5126,
      "count": 1385,
      "max": [
        0.46317264437675476,
        0.9791672825813293,
        0.0016398390289396048
      ],
      "min": [
        -0.46317267417907715,
        -0.979167103767395,
        0.0
      ],
      "type": "VEC3"
    },
    {
      "bufferView": 2,
      "byteOffset": 205716,
      "componentType": 5126,
      "count": 1385,
      "max": [
        0.11353079229593277,
        0.05429386720061302,
        -0.9922983050346375
      ],
      "min": [
        -0.11353079229593277,
        -0.05429386720061302,
        -1.0
      ],
      "type": "VEC3"
    },
    {
      "bufferView": 1,
      "byteOffset": 63032,
      "componentType": 5126,
      "count": 1385,
      "max": [
        1.0000001192092896,
        1.0000001192092896
      ],
      "min": [
        0.0,
        0.0
      ],
      "type": "VEC2"
    },
    {
      "bufferView": 0,
      "byteOffset": 176928,
      "componentType": 5125,
      "count": 7671,
      "type": "SCALAR"
    },
    {
      "bufferView": 2,
      "byteOffset": 222336,
      "componentType": 5126,
      "count": 2555,
      "max": [
        0.470563679933548,
        0.9947918653488159,
        0.006559357047080994
      ],
      "min": [
        -0.470563679933548,
        -0.9947918653488159,
        0.00109321647323668
      ],
      "type": "VEC3"
    },
    {
      "bufferView": 2,
      "byteOffset": 252996,
      "componentType": 5126,
      "count": 2555,
      "max": [
        1.0,
        1.0,
        1.0
      ],
      "min": [
        -1.0,
        -1.0,
        -0.9985433220863342
      ],
      "type": "VEC3"
    },
    {
      "bufferView": 1,
      "byteOffset": 74112,
      "componentType": 5126,
      "count": 2555,
      "max": [
        1.0171343088150024,
        1.0165165662765503
      ],
      "min": [
        -0.029987715184688568,
        -0.030605671927332878
      ],
      "type": "VEC2"
    },
    {
      "bufferView": 0,
      "byteOffset": 207612,
      "componentType": 5125,
      "count": 14445,
      "type": "SCALAR"
    },
    {
      "bufferView": 2,
      "byteOffset": 283656,
      "componentType": 5126,
      "count": 1385,
      "max": [
        0.46317264437675476,
        0.9791672825813293,
        0.0016398390289396048
      ],
      "min": [
        -0.46317267417907715,
        -0.979167103767395,
        0.0
      ],
      "type": "VEC3"
    },
    {
      "bufferView": 2,
      "byteOffset": 300276,
      "componentType": 5126,
      "count": 1385,
      "max": [
        0.11353079229593277,
        0.05429386720061302,
        -0.9922983050346375
      ],
      "min": [
        -0.11353079229593277,
        -0.05429386720061302,
        -1.0
      ],
      "type": "VEC3"
    },
    {
      "bufferView": 1,
      "byteOffset": 94552,
      "componentType": 5126,
      "count": 1385,
      "max": [
        1.0000001192092896,
        1.0000001192092896
      ],
      "min": [
        0.0,
        0.0
      ],
      "type": "VEC2"
    },
    {
      "bufferView": 0,
      "byteOffset": 265392,
      "componentType": 5125,
      "count": 7671,
      "type": "SCALAR"
    },
    {
      "bufferView": 2,
      "byteOffset": 316896,
      "componentType": 5126,
      "count": 2544,
      "max": [
        0.470563679933548,
        0.9947918653488159,
        0.006559357047080994
      ],
      "min": [
        -0.470563679933548,
        -0.9947918653488159,
        0.00109321647323668
      ],
      "type": "VEC3"
    },
    {
      "bufferView": 2,
      "byteOffset": 347424,
      "componentType": 5126,
      "count": 2544,
      "max": [
        1.0,
        1.0,
        1.0
      ],
      "min": [
        -1.0,
        -1.0,
        -0.9985433220863342
      ],
      "type": "VEC3"
    },
    {
      "bufferView": 1,
      "byteOffset": 105632,
      "componentType": 5126,
      "count": 2544,
      "max": [
        0.9734688997268677,
        0.9734689593315125
      ],
      "min": [
        0.026531191542744637,
        0.02653120458126068
      ],
      "type": "VEC2"
    },
    {
      "bufferView": 0,
      "byteOffset": 296076,
      "componentType": 5125,
      "count": 14445,
      "type": "SCALAR"
    }
  ],
  "asset": {
    "extras": {
      "author": "Šimon Ustal (https://sketchfab.com/simonustal)",
      "license": "CC-BY-4.0 (http://creativecommons.org/licenses/by/4.0/)",
      "source": "https://sketchfab.com/3d-models/playing-cards-8137a484e0b640cf9f30e34be44bff55",
      "title": "Playing Cards"
    },
    "generator": "Sketchfab-12.68.0",
    "version": "2.0"
  },
  "bufferViews": [
    {
      "buffer": 0,
      "byteLength": 353856,
      "name": "floatBufferViews",
      "target": 34963
    },
    {
      "buffer": 0,
      "byteLength": 125984,
      "byteOffset": 353856,
      "byteStride": 8,
      "name": "floatBufferViews",
      "target": 34962
    },
    {
      "buffer": 0,
      "byteLength": 377952,
      "byteOffset": 479840,
      "byteStride": 12,
      "name": "floatBufferViews",
      "target": 34962
    }
  ],
  "buffers": [
    {
      "byteLength": 857792,
      "uri": "scene.bin"
    }
  ],
  "images": [
    {
      "uri": "textures/Material.002_baseColor.png"
    },
    {
      "uri": "textures/Material.002_metallicRoughness.png"
    },
    {
      "uri": "textures/Material.001_baseColor.png"
    },
    {
      "uri": "textures/Material.001_metallicRoughness.png"
    },
    {
      "uri": "textures/Material.003_baseColor.png"
    },
    {
      "uri": "textures/Material.003_metallicRoughness.png"
    },
    {
      "uri": "textures/Material.004_baseColor.png"
    },
    {
      "uri": "textures/Material.004_metallicRoughness.png"
    },
    {
      "uri": "textures/material_0_baseColor.png"
    },
    {
      "uri": "textures/material_0_metallicRoughness.png"
    }
  ],
  "materials": [
    {
      "doubleSided": true,
      "name": "Material.002",
      "occlusionTexture": {
        "index": 1,
        "strength": 0.1
      },
      "pbrMetallicRoughness": {
        "baseColorTexture": {
          "index": 0
        },
        "metallicFactor": 0.1841152436021378,
        "metallicRoughnessTexture": {
          "index": 1
        },
        "roughnessFactor": 0.6942812931312283
      }
    },
    {
      "doubleSided": true,
      "name": "Material.001",
      "occlusionTexture": {
        "index": 3
      },
      "pbrMetallicRoughness": {
        "baseColorTexture": {
          "index": 2
        },
        "metallicFactor": 0.1050729924788258,
        "metallicRoughnessTexture": {
          "index": 3
        },
        "roughnessFactor": 0.6760407736412333
      }
    },
    {
      "doubleSided": true,
      "name": "Material.003",
      "occlusionTexture": {
        "index": 5
      },
      "pbrMetallicRoughness": {
        "baseColorTexture": {
          "index": 4
        },
        "metallicFactor": 0.1901954167654695,
        "metallicRoughnessTexture": {
          "index": 5
        },
        "roughnessFactor": 0.5909183493545895
      }
    },
    {
      "doubleSided": true,
      "name": "Material.004",
      "occlusionTexture": {
        "index": 7
      },
      "pbrMetallicRoughness": {
        "baseColorTexture": {
          "index": 6
        },
        "metallicFactor": 0.14155403145881595,
        "metallicRoughnessTexture": {
          "index": 7
        },
        "roughnessFactor": 0.6213192151712481
      }
    },
    {
      "doubleSided": true,
      "name": "Material.005",
      "occlusionTexture": {
        "index": 1,
        "strength": 0.1
      },
      "pbrMetallicRoughness": {
        "baseColorTexture": {
          "index": 0
        },
        "metallicFactor": 0.1841152436021378,
        "metallicRoughnessTexture": {
          "index": 1
        },
        "roughnessFactor": 0.6578002541512382
      }
    },
    {
      "doubleSided": true,
      "name": "material_0",
      "occlusionTexture": {
        "index": 9
      },
      "pbrMetallicRoughness": {
        "baseColorTexture": {
          "index": 8
        },
        "metallicFactor": 0.19627558992880118,
        "metallicRoughnessTexture": {
          "index": 9
        },
        "roughnessFactor": 0.6334795614979114
      }
    }
  ],
  "meshes": [
    {
      "name": "Plane_Material.002_0",
      "primitives": [
        {
          "attributes": {
            "NORMAL": 1,
            "POSITION": 0,
            "TEXCOORD_0": 2
          },
          "indices": 3,
          "material": 0,
          "mode": 4
        }
      ]
    },
    {
      "name": "Plane_Material.001_0",
      "primitives": [
        {
          "attributes": {
            "NORMAL": 5,
            "POSITION": 4,
            "TEXCOORD_0": 6
          },
          "indices": 7,
          "material": 1,
          "mode": 4
        }
      ]
    },
    {
      "name": "Plane.001_Material.002_0",
      "primitives": [
        {
          "attributes": {
            "NORMAL": 9,
            "POSITION": 8,
            "TEXCOORD_0": 10
          },
          "indices": 11,
          "material": 0,
          "mode": 4
        }
      ]
    },
    {
      "name": "Plane.001_Material.003_0",
      "primitives": [
        {
          "attributes": {
            "NORMAL": 13,
            "POSITION": 12,
            "TEXCOORD_0": 14
          },
          "indices": 15,
          "material": 2,
          "mode": 4
        }
      ]
    },
    {
      "name": "Plane.002_Material.002_0",
      "primitives": [
        {
          "attributes": {
            "NORMAL": 17,
            "POSITION": 16,
            "TEXCOORD_0": 18
          },
          "indices": 19,
          "material": 0,
          "mode": 4
        }
      ]
    },
    {
      "name": "Plane.002_Material.004_0",
      "primitives": [
        {
          "attributes": {
            "NORMAL": 21,
            "POSITION": 20,
            "TEXCOORD_0": 22
          },
          "indices": 23,
          "material": 3,
          "mode": 4
        }
      ]
    },
    {
      "name": "Plane.003_Material.005_0",
      "primitives": [
        {
          "attributes": {
            "NORMAL": 25,
            "POSITION": 24,
            "TEXCOORD_0": 26
          },
          "indices": 27,
          "material": 4,
          "mode": 4
        }
      ]
    },
    {
      "name": "Plane.003_Material.006_0",
      "primitives": [
        {
          "attributes": {
            "NORMAL": 29,
            "POSITION": 28,
            "TEXCOORD_0": 30
          },
          "indices": 31,
          "material": 5,
          "mode": 4
        }
      ]
    }
  ],
  "nodes": [
    {
      "children": [
        1
      ],
      "matrix": [
        1.0,
        0.0,
        0.0,
        0.0,
        0.0,
        2.220446049250313e-16,
        -1.0,
        0.0,
        0.0,
        1.0,
        2.220446049250313e-16,
        0.0,
        0.0,
        0.0,
        0.0,
        1.0
      ],
      "name": "Sketchfab_model"
    },
    {
      "children": [
        2
      ],
      "matrix": [
        1.0,
        0.0,
        0.0,
        0.0,
        0.0,
        0.0,
        1.0,
        0.0,
        0.0,
        -1.0,
        0.0,
        0.0,
        0.0,
        0.0,
        0.0,
        1.0
      ],
      "name": "4d1d2e89cdba4e7a9c06622bb5f186e5.fbx"
    },
    {
      "children": [
        3,
        6,
        8,
        11,
        14,
        17
      ],
      "name": "RootNode"
    },
    {
      "children": [
        4
      ],
      "matrix": [
        -29.48132924638603,
        -2.7078977554664125,
        -95.51711910171436,
        0.0,
        63.98960782614683,
        73.67757028654187,
        -21.83912207041702,
        0.0,
        70.96606282964166,
        -67.559483093361,
        -19.98835087287649,
        0.0,
        90.32820129394531,
        743.3132934570313,
        -153.64398193359375,
        1.0
      ],
      "name": "Light"
    },
    {
      "children": [
        5
      ],
      "matrix": [
        1.0,
        0.0,
        0.0,
        0.0,
        0.0,
        2.220446049250313e-16,
        1.0,
        0.0,
        0.0,
        -1.0,
        2.220446049250313e-16,
        0.0,
        0.0,
        0.0,
        0.0,
        1.0
      ],
      "name": "Object_4"
    },
    {
      "name": "Object_5"
    },
    {
      "children": [
        7
      ],
      "matrix": [
        -65.15583280329096,
        -44.52713576570858,
        -61.41703047373549,
        0.0,
        -32.40134137821245,
        89.53957451233616,
        -30.542088974418615,
        0.0,
        68.59205472129975,
        -1.0718647115348782e-05,
        -72.7676336239627,
        0.0,
        735.88916015625,
        495.8309326171875,
        692.5791015625,
        1.0
      ],
      "name": "Camera"
    },
    {
      "name": "Object_7"
    },
    {
      "children": [
        9,
        10
      ],
      "matrix": [
        297.1417421708727,
        -62.035519797066506,
        15.984105744248684,
        0.0,
        40.958948992752134,
        175.8978987488547,
        -78.74671884914197,
        0.0,
        3.462253619502537,
        40.16341490249625,
        91.51455022696764,
        0.0,
        89.35272979736328,
        189.17080688476563,
        -17.560104370117188,
        1.0
      ],
      "name": "Plane"
    },
    {
      "mesh": 0,
      "name": "Plane_Material.002_0"
    },
    {
      "mesh": 1,
      "name": "Plane_Material.001_0"
    },
    {
      "children": [
        12,
        13
      ],
      "matrix": [
        268.02375592581234,
        -135.3586103202038,
        47.31199810704182,
        0.0,
        92.61776193852343,
        158.00965891057348,
        -72.61990003313304,
        0.0,
        3.9305385422599524,
        39.81637577493936,
        91.64718810152678,
        0.0,
        218.83840942382813,
        147.54327392578125,
        1.748746633529663,
        1.0
      ],
      "name": "Plane.001"
    },
    {
      "mesh": 2,
      "name": "Plane.001_Material.002_0"
    },
    {
      "mesh": 3,
      "name": "Plane.001_Material.003_0"
    },
    {
      "children": [
        15,
        16
      ],
      "matrix": [
        297.3009372800699,
        51.078699425746315,
        -37.41991453003904,
        0.0,
        -40.31813775802719,
        174.4778047266999,
        -82.16268902167609,
        0.0,
        3.8941457625871916,
        43.30605718784575,
        90.05232389906858,
        0.0,
        -64.28741455078125,
        195.82125854492188,
        -28.328258514404297,
        1.0
      ],
      "name": "Plane.002"
    },
    {
      "mesh": 4,
      "name": "Plane.002_Material.002_0"
    },
    {
      "mesh": 5,
      "name": "Plane.002_Material.004_0"
    },
    {
      "children": [
        18,
        19
      ],
      "matrix": [
        257.86741329490076,
        140.66879729097568,
        -78.19090404501286,
        0.0,
        -104.0813307504139,
        152.18901951629672,
        -69.45740381161826,
        0.0,
        3.555399465252977,
        43.49519694174334,
        89.97515492356989,
        0.0,
        -173.99954223632813,
        173.65426635742188,
        -20.311918258666992,
        1.0
      ],
      "name": "Plane.003"
    },
    {
      "mesh": 6,
      "name": "Plane.003_Material.005_0"
    },
    {
      "mesh": 7,
      "name": "Plane.003_Material.006_0"
    }
  ],
  "samplers": [
    {
      "magFilter": 9729,
      "minFilter": 9987,
      "wrapS": 10497,
      "wrapT": 10497
    }
  ],
  "scene": 0,
  "scenes": [
    {
      "name": "Sketchfab_Scene",
      "nodes": [
        0
      ]
    }
  ],
  "textures": [
    {
      "sampler": 0,
      "source": 0
    },
    {
      "sampler": 0,
      "source": 1
    },
    {
      "sampler": 0,
      "source": 2
    },
    {
      "sampler": 0,
      "source": 3
    },
    {
      "sampler": 0,
      "source": 4
    },
    {
      "sampler": 0,
      "source": 5
    },
    {
      "sampler": 0,
      "source": 6
    },
    {
      "sampler": 0,
      "source": 7
    },
    {
      "sampler": 0,
      "source": 8
    },
    {
      "sampler": 0,
      "source": 9
    }
  ]
}
